<?xml version="1.0" standalone="no"?>
<!DOCTYPE svg PUBLIC "-//W3C//DTD SVG 20010904//EN"
 "http://www.w3.org/TR/2001/REC-SVG-20010904/DTD/svg10.dtd">
<svg version="1.0" xmlns="http://www.w3.org/2000/svg"
 width="1024.000000pt" height="1024.000000pt" viewBox="0 0 1024.000000 1024.000000"
 preserveAspectRatio="xMidYMid meet">
<metadata>
Created by potrace 1.14, written by Peter Selinger 2001-2017
</metadata>
<g transform="translate(0.000000,1024.000000) scale(0.100000,-0.100000)"
fill="#000000" stroke="none">
<path d="M2999 9489 c-257 -35 -506 -242 -603 -500 -39 -105 -48 -193 -50
-478 l-1 -266 -285 -2 c-433 -2 -467 -5 -575 -50 -167 -71 -316 -255 -357
-443 -22 -97 -23 -6395 -1 -6498 51 -244 267 -451 508 -488 28 -4 1605 -7
3505 -7 3825 1 3513 -5 3655 64 92 44 210 161 267 265 27 48 56 135 65 189 4
28 7 1492 7 3255 l0 3205 -26 73 c-64 180 -194 318 -363 389 -48 20 -72 26
-145 38 -19 4 -184 6 -366 7 l-331 0 0 282 c-2 330 -11 392 -78 533 -97 200
-275 349 -495 413 -67 20 -102 23 -323 25 -270 2 -346 -6 -461 -49 -217 -82
-411 -300 -470 -531 -23 -90 -25 -118 -25 -407 l-1 -266 -925 0 -925 0 -1 246
c0 136 -2 274 -5 306 -24 310 -256 588 -564 676 -67 20 -103 22 -325 24 -137
1 -275 -1 -306 -5z m499 -645 c17 -7 43 -30 57 -52 l27 -40 -1 -744 c0 -448
-4 -754 -10 -769 -12 -33 -47 -68 -79 -81 -16 -6 -110 -10 -224 -10 -221 0
-243 5 -282 72 -20 34 -21 51 -21 760 -1 399 3 743 8 765 10 48 50 92 92 104
51 14 398 10 433 -5z m3711 -6 c79 -39 75 2 76 -833 1 -725 0 -740 -20 -779
-36 -70 -66 -79 -288 -79 -221 0 -249 7 -285 72 l-22 39 0 741 c0 791 -1 781
49 825 30 27 73 32 273 33 157 1 182 -2 217 -19z m1309 -4965 l-3 -2498 -3392
0 -3393 0 0 2497 0 2498 3395 0 3395 0 -2 -2497z"/>
</g>
</svg>
